# xmcd
#
# Track frame offsets:
#	150
#	20271
#	46668
#	60420
#	83137
#	113795
#	133376
#	154622
#	180735
#	208546
#	229147
#	248542
#	272515
#	291126
#	316659
#
# Disc length: 4565 seconds
#
# Revision: 1
# Processed by: cddbd v1.5.2PL0 Copyright (c) Steve Scherf et al.
# Submitted via: audiograbber 1.83.01
#
DISCID=be11d30f
DTITLE=Diana Krall - The Very Best of Diana Krall
DYEAR=2007
DGENRE=
TTITLE0=S'Wonderful
TTITLE1=Peel Me a Grape
TTITLE2=Pick Yourself Up
TTITLE3=Frim Fram Sauce
TTITLE4=You Go To My Head
TTITLE5=Let's Fall in Love
TTITLE6=The Look of Love
TTITLE7=East of the Sun (West of the Moon)
TTITLE8=I've Got You Under My Skin
TTITLE9=All or Nothing At All
TTITLE10=Only the Lonely
TTITLE11=Let's Face the Music and Dance
TTITLE12=The Heart of Saturday Night
TTITLE13=Little Girl Blue
TTITLE14=Fly Me to the Moon
EXTD=
EXTT0=
EXTT1=
EXTT2=
EXTT3=
EXTT4=
EXTT5=
EXTT6=
EXTT7=
EXTT8=
EXTT9=
EXTT10=
EXTT11=
EXTT12=
EXTT13=
EXTT14=
PLAYORDER=
